<svg xmlns="http://www.w3.org/2000/svg" width="40" height="40" viewBox="0 0 40 40">
  <g id="Grupo_27497" data-name="Grupo 27497" transform="translate(-795 -305)">
    <g id="Elipse_5749" data-name="Elipse 5749" transform="translate(795 305)" fill="#fff" stroke="#e6e6e6" stroke-width="1">
      <circle cx="20" cy="20" r="20" stroke="none"/>
      <circle cx="20" cy="20" r="19.5" fill="none"/>
    </g>
    <g id="Grupo_27233" data-name="Grupo 27233" transform="translate(805.851 315.851)">
      <path id="Caminho_25273" data-name="Caminho 25273" d="M-264.186,1612.194c0-.547-.005-1.094-.006-1.641q0-1.07,0-2.139A2.494,2.494,0,0,1-262,1606c.156-.015.311-.022.467-.022h5.45a.719.719,0,0,0,.27-.05q3.628-1.422,7.257-2.839a1.829,1.829,0,0,1,2.007.436,3.19,3.19,0,0,1,.505.852,13.472,13.472,0,0,1,1.349,4.935,13.248,13.248,0,0,1-1.33,6.783,3.26,3.26,0,0,1-.516.879,1.826,1.826,0,0,1-2.056.434l-3.5-1.369-3.7-1.45c-.04-.016-.078-.036-.118-.054a.64.64,0,0,0,.695-.74,2.618,2.618,0,0,1,0-.292l3.13,1.224q1.967.769,3.934,1.537a.6.6,0,0,0,.836-.322,12.676,12.676,0,0,0,1.311-4.01,11.666,11.666,0,0,0-.026-3.527,12.668,12.668,0,0,0-1.267-3.8.614.614,0,0,0-.9-.344q-3.015,1.18-6.029,2.36a10.772,10.772,0,0,0-1,.407.325.325,0,0,0-.084.018,1.706,1.706,0,0,1-.909.158c-.078,0-.156,0-.234,0-.019,0-.039,0-.058,0h-5.2a1.234,1.234,0,0,0-.318.047,1.3,1.3,0,0,0-.955,1.33c-.007,1.21,0,2.421,0,3.631a.683.683,0,0,1-.472.413A.628.628,0,0,1-264.186,1612.194Z" transform="translate(264.193 -1602.959)" fill="#ecb112"/>
      <path id="Caminho_25274" data-name="Caminho 25274" d="M-264.133,1643.756a.628.628,0,0,0,.729.432.684.684,0,0,0,.472-.413c.036.013.028.047.035.074a1.278,1.278,0,0,0,1.319,1.018c1.664,0,3.327,0,4.991,0,.145,0,.193-.026.193-.185-.006-1.971,0-3.942,0-5.913.078,0,.156-.009.234,0a1.706,1.706,0,0,0,.909-.157.32.32,0,0,1,.084-.018q0,2.482,0,4.965c0,.5,0,1.006,0,1.508a2.619,2.619,0,0,0,0,.291.64.64,0,0,1-.695.74c-.488,0-.976,0-1.464-.008-.111,0-.1.057-.1.127q0,1.149,0,2.3,0,1.516,0,3.031a.609.609,0,0,1-.792.626q-1.178-.29-2.353-.589a.61.61,0,0,1-.518-.674c0-1.552,0-3.1,0-4.656,0-.139-.041-.169-.17-.164a3.077,3.077,0,0,1-1.377-.2A2.49,2.49,0,0,1-264.133,1643.756Zm5.483,4.681c0-.737,0-1.473,0-2.21,0-.1-.025-.133-.129-.131-.322.007-.644,0-.966,0-.089,0-.129.014-.129.118q.005,2.086,0,4.172c0,.081.02.119.107.139q.491.113.977.246c.11.03.14.009.139-.109C-258.653,1649.92-258.651,1649.179-258.651,1648.437Z" transform="translate(264.14 -1634.522)" fill="#007e7a"/>
    </g>
  </g>
</svg>
