<svg id="Grupo_20903" data-name="Grupo 20903" xmlns="http://www.w3.org/2000/svg" xmlns:xlink="http://www.w3.org/1999/xlink" width="22.99" height="27" viewBox="0 0 22.99 27">
  <defs>
    <clipPath id="clip-path">
      <rect id="Retângulo_17043" data-name="Retângulo 17043" width="22.99" height="27" fill="none"/>
    </clipPath>
  </defs>
  <g id="Grupo_20902" data-name="Grupo 20902" clip-path="url(#clip-path)">
    <path id="Caminho_25233" data-name="Caminho 25233" d="M21.061,27H1.929A1.932,1.932,0,0,1,0,25.07V1.929A1.932,1.932,0,0,1,1.929,0H21.061A1.932,1.932,0,0,1,22.99,1.929V25.07A1.932,1.932,0,0,1,21.061,27M1.929,1.016a.914.914,0,0,0-.913.913V25.07a.914.914,0,0,0,.913.913H21.061a.914.914,0,0,0,.913-.913V1.929a.914.914,0,0,0-.913-.913Z" fill="#027b7a"/>
    <path id="Caminho_25234" data-name="Caminho 25234" d="M11.96,27H2.131A2.04,2.04,0,0,1,0,25.07V1.929A2.04,2.04,0,0,1,2.131,0H11.96a.508.508,0,1,1,0,1.016H2.131a1.031,1.031,0,0,0-1.115.913V25.07a1.031,1.031,0,0,0,1.115.913H11.96a.508.508,0,1,1,0,1.016" fill="#ecb112"/>
    <path id="Caminho_25235" data-name="Caminho 25235" d="M22.482,56.244H.508a.508.508,0,0,1,0-1.016H22.482a.508.508,0,0,1,0,1.016" transform="translate(0 -49.617)" fill="#ecb112"/>
    <path id="Caminho_25236" data-name="Caminho 25236" d="M34.9,28.63H29.863a.508.508,0,0,1,0-1.016H34.9a.508.508,0,1,1,0,1.016" transform="translate(-26.373 -24.808)" fill="#ecb112"/>
    <path id="Caminho_25237" data-name="Caminho 25237" d="M141.562,145.095h-5.036a.508.508,0,0,1,0-1.016h5.036a.508.508,0,1,1,0,1.016" transform="translate(-122.199 -129.441)" fill="#027b7a"/>
    <path id="Caminho_25238" data-name="Caminho 25238" d="M141.562,171.307h-5.036a.508.508,0,0,1,0-1.016h5.036a.508.508,0,1,1,0,1.016" transform="translate(-122.199 -152.99)" fill="#027b7a"/>
    <path id="Caminho_25239" data-name="Caminho 25239" d="M141.562,197.52h-5.036a.508.508,0,0,1,0-1.016h5.036a.508.508,0,1,1,0,1.016" transform="translate(-122.199 -176.54)" fill="#027b7a"/>
    <path id="Caminho_25240" data-name="Caminho 25240" d="M141.562,223.733h-5.036a.508.508,0,0,1,0-1.016h5.036a.508.508,0,0,1,0,1.016" transform="translate(-122.199 -200.09)" fill="#027b7a"/>
    <path id="Caminho_25241" data-name="Caminho 25241" d="M134.08,28.63H133.4a.508.508,0,0,1,0-1.016h.677a.508.508,0,0,1,0,1.016" transform="translate(-119.393 -24.808)" fill="#ecb112"/>
    <path id="Caminho_25242" data-name="Caminho 25242" d="M158.654,28.63h-.677a.508.508,0,1,1,0-1.016h.677a.508.508,0,1,1,0,1.016" transform="translate(-141.471 -24.808)" fill="#ecb112"/>
    <path id="Caminho_25243" data-name="Caminho 25243" d="M183.229,28.63h-.677a.508.508,0,1,1,0-1.016h.677a.508.508,0,1,1,0,1.016" transform="translate(-163.549 -24.808)" fill="#ecb112"/>
    <path id="Caminho_25244" data-name="Caminho 25244" d="M45.313,87.256H30.7a1.351,1.351,0,0,1-1.35-1.35V84.322a1.351,1.351,0,0,1,1.35-1.35H45.313a1.351,1.351,0,0,1,1.35,1.35v1.585a1.351,1.351,0,0,1-1.35,1.35M30.7,83.988a.334.334,0,0,0-.334.334v1.585a.334.334,0,0,0,.334.334H45.313a.334.334,0,0,0,.334-.334V84.322a.334.334,0,0,0-.334-.334Z" transform="translate(-26.373 -74.542)" fill="#027b7a"/>
    <path id="Caminho_25245" data-name="Caminho 25245" d="M37.011,153.084H30.7a1.351,1.351,0,0,1-1.35-1.35v-6.306a1.351,1.351,0,0,1,1.35-1.35h6.306a1.351,1.351,0,0,1,1.35,1.35v6.306a1.351,1.351,0,0,1-1.35,1.35M30.7,145.095a.334.334,0,0,0-.334.334v6.306a.334.334,0,0,0,.334.334h6.306a.334.334,0,0,0,.334-.334v-6.306a.334.334,0,0,0-.334-.334Z" transform="translate(-26.373 -129.441)" fill="#027b7a"/>
  </g>
</svg>
